<?xml version="1.0" encoding="UTF-8"?>
<svg id="_Слой_1" data-name="Слой_1" xmlns="http://www.w3.org/2000/svg" version="1.1" viewBox="0 0 2721.26 1587.4">
  <!-- Generator: Adobe Illustrator 30.0.0, SVG Export Plug-In . SVG Version: 2.1.1 Build 123)  -->
  <defs>
    <style>
      .st0 {
        fill: #4a3825;
      }

      .st1 {
        fill: #fbfbfb;
      }

      .st2 {
        fill: #4e3b2a;
      }

      .st3 {
        fill: #fdfdfd;
      }
    </style>
  </defs>
  <path class="st3" d="M2538.36,34.21v1424.32H182.9V34.21h2355.46ZM603.99,357.66c1.86,2,40.85-18.23,45.82-21.27,74.89-45.93,106.23-138.46,30.43-201.04-90.5-74.72-215.9,5.67-226.86,110.89-65.13,25.39-103.03,92.35-86.05,161.43,18.62,75.76,102.9,95.35,170.83,79.94,7.62-1.73,22.31-8.51,28.15-8.77,6.62-.29,16.43,4.71,24.1,5.41,17.57,1.6,39.35-3.72,54.01-13.57.72-3.88-1.46-2.99-4.21-2.38-5.38,1.21-10.48,4.68-15.99,6.09-17.27,4.42-30.3,5.78-47.81.89,11.31-9.16,25.59-15.09,35.66-25.9,43.71-46.91-15.19-99.14-62.01-63.81-29.54,22.29-21.86,55.91-1.23,81.42-30.92,12.76-67.56,12.34-99.34,1.92-53.85-17.66-71.11-55.02-65.92-110.07,3.56-37.75,33.33-78.11,69.63-89.37,1.67,54.15,33.35,100.47,92.67,93.53,42.98-5.03,63.55-54.21,43.74-91.11-16.75-31.19-57.1-39.26-89.59-37.42-7.68.43-16.33,3.25-23.84,3.78-6.13.43.21-15.42,1.37-18.88,28.24-84.08,130.57-133.81,201.84-66.63,58.3,54.95,31.34,130.06-25.92,172.62-15.4,11.44-32.1,16.86-47.18,26.32-2.66,1.67-3.8,4.38-2.3,6ZM848.68,587.27c5.79,4.14,42.85-27.4,48.39-33.14,99.11-102.78,16.61-294.32-131.7-273.15-150.51,21.49-152.25,228.7-.74,214.29,53.45-5.08,96.01-54.02,76.89-107.62-20.06-56.26-118.1-57.49-116.18,10.44,2.15,2.43,15.09-12.76,17.5-14.65,45.55-35.68,101.35-.83,84.14,54.69-20.18,65.09-124.94,54.5-148.5-5.14-24.4-61.76,21.64-119.79,81.42-133.58,161.81-37.32,230.44,205.61,77.73,260.57-.97,1.36,9.85,26.43,11.05,27.3ZM684.88,506.56c-3.65-3.81-32.48-2.61-39.02-1.36-77.94,14.87-63.2,109.62-110.08,143.6-47.33,34.31-136.77,8.02-142.74-55.48-4.2-44.73,40.61-79.83,83.13-75.74,27.33,2.63,53.31,31.26,44.6,59.26-4.76,15.32-33.41,28.33-44.52,12.33-3.54-5.1-.57-10.91-8.33-9.12,3.85,35.73,50.79,26.56,61.08-.52,8.29-21.81-3.08-47.28-20.58-61.1-44.06-34.81-122.77,1.45-130.13,55.66-15,110.63,157.44,150.05,197.67,48.71,15.46-38.93,19.29-91.43,66.68-107.95,15.01-5.23,25.5-2.84,39.52-4.64,2.56-.33,5.3-.96,2.72-3.65ZM583.75,1127.71h-57c-.83,0-2.64,14.16-1.84,16.54h171.01v-16.54h-57v-367.57c55.2-13.54,139.89,7.01,186.59-29.45,7.34-5.73,25.95-27.47,28.52-35.83.8-2.6-.23-3.22-2.75-2.74-4.09.78-13.55,16.94-18.1,21.43-39.02,38.56-116.35,20.51-167.68,22.62-9.41.39-20.64,2.87-30.2,3.72-2.5-1.78-8.66-52.61-9.24-59.72-1.67-20.66-3.46-45.17.81-65.32,16.72-78.98,134.14-110.21,177.89-36.1,36.2,61.33-35.77,139.41-96.59,102.05-55.44-34.05-13.83-115.68,52.57-92.98,7.35,2.51,14.93,8.55,21.04,10.23,2.26.62,5.27,1.44,4.21-2.37-.99-3.56-13.17-15.87-16.64-18.3-32.01-22.35-78.99-2.92-93.71,31.07-35.77,82.55,105.62,142.49,148.73,49.41,45.07-97.32-63.71-169.13-153.62-124.14-73.45,36.75-62.95,99.45-72.55,168.25-1.04,7.48-6.25,45.42-9.34,48.56-52.7,17.99-97.92,49.1-132.71,92.49-16.52,20.6-28.57,43.65-42.66,65.84-32.42-17.99-88.03-34.19-120.86-10.57-27.2,19.57-19.26,65.88,9.72,79.69,41.25,19.67,68.57-23,44.2-57.04l-12.86-11.93c16.25-.47,56.54,17.78,61.61,33.19,2.02,6.13-6.55,20.74-8.82,27.83-18.15,56.68-34.54,141.56-13.77,198.59,21.48,58.98,92.77,66.68,118.15,6.81,30.66-72.3-1.88-168.64-43.52-230.27-4.42-6.55-16.76-18.26-15.51-25.18,1.79-9.92,24.5-43.65,31.63-53.11,29.43-39.06,73.11-80.09,122.12-90.21l-1.83,351.03ZM1140.52,799.28c-64.66,6.31-117.37,56.19-122.79,121.71-14.62,176.8,229.62,202.81,271.58,52.74,28.62-102.34-44.44-184.64-148.8-174.45ZM1639.2,940.26h214.22c2.89,0,2.96-7.73,2.89-10.13-2.05-67.88-39.74-125.93-111.4-131.36-186.85-14.16-196.6,257.94-25.69,271.95,50.49,4.14,87.43-7.75,129.6-33.97v-46.86c-8.65-1.07-9.29,11.65-13.91,18.26-9.14,13.1-28.28,26.44-43.13,32.25-77.89,30.47-146.79-20.31-152.58-100.13ZM2240.11,799.29c-84.04,7.89-136.98,82.81-122.01,164.96,26.22,143.89,243.57,142.3,272.26-.08,20.15-99.99-49.76-174.31-150.25-164.87ZM809.92,802.42c-2.71-2.88-69.31,2.19-79.07,0-1.95,10.09,6.46,8.35,11.43,15.22,3,4.14,6.37,13.57,6.96,18.77-3.53,62.25,4.68,129.57.07,191.22-.63,8.46-3.71,22.64-10.13,28.47-4.73,4.31-10.47,1.31-8.34,10.96h79.07c2.09-8.41-4.63-8.09-9.2-13.79-5.87-7.33-11.49-24.47-7.12-32.83,48.75-47.75,96.75-96.36,146.86-142.67v153.46c0,8.76-6.97,21.08-13.79,26.72-3.84,3.18-8.28-.76-6.44,9.12h80.91c1.88-8.84-7.69-10.15-12.57-17.76-2.9-4.52-5.21-10.87-5.82-16.24,3.63-63.43-4.8-132.09-.07-194.89.67-8.9,3.02-18.67,10.14-24.78,4.97-4.26,10.37-1.48,8.32-10.98h-78.15c-1.84,0-3.82,5.67-2.71,7.28.26.37,5.59,1.48,8.27,3.7,8.46,7.02,12.84,22.61,10.99,33.08-39.59,36.92-76.54,76.83-115.8,114.04-7.38,7-19.33,19.14-26.7,24.77-1.85,1.42-2.32,3.55-5.53,2.74v-147.95c0-5.65,5.56-21.75,9.81-26.02,1.99-2,7.66-3.75,8.18-4.68.72-1.27.66-6.69.39-6.97ZM1392.81,802.42h-79.07c-1.96,8.68,4.94,8.85,9.28,13.7,6.58,7.36,8.46,17.89,9.18,27.58,4.5,59.83-3.51,125.25-.1,185.68-.81,8.23-5.04,21.8-11.12,27.51-3.99,3.74-9.36.48-7.25,10.18h79.07c2.05-9.37-3.75-6.63-8.94-12.21-2.67-2.87-9.45-16.64-9.45-19.95v-94.65l141.58.92v93.73c0,3.31-6.78,17.08-9.45,19.95-5.18,5.58-10.99,2.84-8.94,12.21h78.15c.65,0,3.19-2.8,2.76-4.58-.39-1.63-8.96-5.43-11.66-8.78-5.21-6.49-6.99-16.28-8.55-24.34,3.16-60.64-4.26-125.56-.1-185.69,1.21-17.45,4.74-27.8,20.3-36.7.69-1.56-2.19-4.57-2.75-4.57h-78.15c-2.27,9.73,4.89,6.78,10.04,12.94,1.93,2.31,8.34,16.86,8.34,19.22v83.62h-138.83c-.2,0-2.76-2.56-2.76-2.76v-80.86c0-3.15,5.78-16.27,8.38-19.18,5.45-6.09,12.15-3.48,10.01-12.98ZM2106.25,804.26h-242.72v63.41c0,1.18,3.81,4.6,6.42.9,2.04-2.89,3.22-14.9,5.53-20.2,4.22-9.67,18.49-23.89,29.42-23.89h57.92v212.27c0,1.66-5.72,12.57-7.37,14.69-5.84,7.51-15.02,6.09-12.86,15.63h82.74c1.93-9.52-2.79-6.51-7.28-10.15-5.15-4.19-12.95-17.62-12.95-23.85v-208.59h59.76c12.64,0,27.12,16.4,31.21,27.62,1.63,4.47,2.2,14.23,3.7,16.52,2.39,3.66,6.47.28,6.47-.95v-63.41ZM2387.58,1127.71H727.18v16.55s26.59,1.9,26.59,1.9l1632.1-.88c3.38-2.36,1.14-13.22,1.72-17.58ZM556.14,1212.26c-4.04-.66-4.38,1.69-5.39,4.69-7.1,21.02-5.74,52.64-11.48,74.9-1.28,3.44-5.52,4.49-8.83,4.97,3.74,8.05,13.29-1.12,20.25,2.84,17.19-1.31-1.61-3.74-2.02-5.86l5.69-46.62c10.6,13.45,14.52,32.82,24.19,46.56,1.28,1.82,3.4,5.54,6.1,4.9l27.59-51.47c.37,17.14,7.21,34.64,4.62,51.46l27.57,1.84c1.56-6.09-6.19-3.73-8.74-5.95-6.93-6.02-9.01-75.31-15.12-81.37-3.21-3.19-2.89-.62-4.11,1.46-11.48,19.62-18.47,42.31-29.94,62l-30.37-64.34ZM1043.44,1300.47h26.66c.38,0,3.34-3.1,2.76-3.66-2.82-.04-5.62-.59-8.07-2.06-11.41-6.86-32.46-82.5-37-82.52-4.26-.01-7.07,8.51-8.57,11.65-5.62,11.78-23.21,65.39-29.21,70.05-3.42,2.66-10.48.75-9.08,6.53,4.41-2.05,28.23.9,29.4,0,4.52-3.48-11.01-4.31-7.05-9.64,4.33-5.8,16.41-50.25,19.03-51.01,3.55-1.02,2.69,1.66,3.59,3.67,7.46,16.81,15.39,39.05,17.54,56.99ZM1438.78,1250.83c12.56-8.14,20.34-27.66,3.18-35.33-12.78-5.71-49.64-4.51-35.37,16.93,12.64-29.51,47.02-.99,20.99,15.51-2.48,1.57-13.9,3.46-9.05,8.41.59.6,10.35.53,15.68,5.49,20.35,18.95-11.71,44.3-25.72,27.55-4.11-4.91-.06-11.05-8.32-9.15-6.49,26.29,21.52,25.05,38.61,17.47,21.6-9.58,23.4-39.17,0-46.89ZM1604.29,1274.73l-30.39-62.47c-3.07-1.5-3.62,3.17-4.05,5.07-3.34,14.75-7.09,67.28-12.56,75.72-2.52,3.9-7.43,2.15-6.34,7.4,9.27-1.83,16.45-1.83,25.72,0,1.96-5.69-5.83-3.78-7.08-5.77-2.66-4.22,4.9-39.8,5.28-47.51l24.11,48.46,6.19,3.02,26.66-53.33,5.52,53.31,27.58,1.82-12.45-10.51-11.45-77.69c-3.28-.72-3.63.97-5.21,3.04-10.74,14.11-17.24,41.32-27.43,57.07-1.15,1.78.2,3.29-4.09,2.36ZM1696.2,1300.47c1.4,1.11,23.29-.82,27.58,0,1.53-5.72-5.39-2.84-5.51-8.12-.03-1.19,6.66-20.43,7.59-21.04s19.94-.72,22.81-.38c7.15.84,9.11,26.85,11.76,28.75,3.62,2.61,20.33-.25,25.86.78.91-5.39-5.52-4.19-9.23-8.22-2.14-2.32-3.71-6.54-5.2-9.5-4.25-8.47-24.98-70.49-28.79-70.51-3.15-.02-4.71,2.62-6,5.03-6.92,12.97-24.6,71.09-31.78,76.66-1.26.98-13.29,3.2-9.09,6.54ZM1905.62,1216.12c-27.22-7.15-65.65-6.17-76.09,25.55-13.75,41.79,30.14,69.48,67.55,58.33,7.56-2.25,10.85-13.4,6.88-17.92-2.28-2.59-6.7,6.57-9.32,8.14-31.33,18.65-66.05-30.21-43.11-59.64,9.56-12.27,30.09-14.01,42.76-5.89,9.27,5.95,2,14.98,11.53,13.29l-.19-21.87ZM2021.46,1216.12c-3.26-3.83-37.94-3.52-44.67-1.86-42.09,10.37-43.95,70.78-3.34,83.86,9.63,3.1,38.25,6.53,45.95.09,1.6-1.33,4.85-18.92,4.1-19.79-8.72,3.08-6.42,11.92-17.88,14.26-59.25,12.13-60.23-96.37,4.89-68.36l11.15,15.48c-.8-4.13,1.22-22.02-.19-23.69ZM2290.13,1300.47c1.04.83,22.65,0,26.66,0,.38,0,3.34-3.1,2.76-3.66-12.31,3.4-3.37-20.48-.19-24.61,1.24-1.61,24.15-1.88,25.69-.89,1.28.83,9.66,25.26,7.61,29.16h26.66c.38,0,3.34-3.09,2.76-3.66-3.83,0-7.25-1.09-10.17-3.64-9.57-8.32-30.48-80.92-34.9-80.94-3.15-.02-4.71,2.62-6,5.03-6.92,12.97-24.94,71.35-31.78,76.66-1.26.98-13.29,3.2-9.09,6.54ZM740.05,1214.09h-53.32c-1.52,6.31,6.68,2.62,9.35,6.73,3.02,4.65,2.72,69.66-.59,73.69-2.12,2.59-8.55.22-6.92,5.96h50.57c3.87,0,5.68-15.21,4.59-18.37-5.72-1.18-2.75,4.31-6.29,7.46-4.31,3.82-20.97,4.51-23.2.5-2.01-3.6-2.92-27.31-.95-30.14,1.83-2.63,13.21-2.3,16.32-1.37,5.26,1.57,2.85,8.17,8.61,6.99l1.88-15.59c-6.29-2.02-20.41,3.9-25.89.09-2.77-1.92-2.76-25.88,0-27.79,5.28-1.78,13.8-.99,18.45,2.03,3.9,2.53,2.16,7.43,7.4,6.34v-16.53ZM836.58,1214.09c-10.55-3.38-39.66,2.52-52.4,0-.5,5.84,6.31,4.41,7.37,10.09,1.75,9.34,1.34,54.07.09,64.44s-9.14,4.22-9.3,11.84h41.37c9.17,0,21.99-11.68,23.03-21.1,2.48-22.31-19-32.88-38.67-30.35-.04-21.93-4.98-29.29,21.05-25.57,10.68,1.53,4.11,7.93,12.05,9.01.68-3.85-.8-17.15-4.59-18.37ZM938.63,1214.09h-53.32c-1.61,6.09,6.13,2.98,8.77,5.96,5.15,5.81.91,31.01.8,39.07-.14,10.5,3.03,23.33-.29,34.65-.68,2.33-9.02,1-7.44,6.7h50.57c3.88,0,5.67-15.21,4.59-18.37-5.71-1.1-4.59,6.14-7.37,8.24-4.76,3.59-23.88,4.03-23.88-3.65v-28.49c5.05.72,12.65-1.25,17.17.3,5.34,1.83,2.4,10.34,8.57,8.88v-18.37c-28.05,6.61-29.33-.88-24.02-26.76,3.15-2.19,13.78-.59,17.24,1.38,3.77,2.15,3.6,7.58,8.62,6.99v-16.53ZM1142.74,1214.09h-33.1c-1.22,6.11,5.91,2.5,8.31,7.32,1.68,3.37,1.85,68.65,0,71.73-2.26,3.76-9.86,1.49-8.31,7.32h41.37c8.08,0,21.52-11.08,22.87-19.4,3.66-22.5-18.85-33.97-38.51-32.05,1.33-7.96-1.77-21.09-.07-28.19.81-3.35,9.41-.79,7.43-6.74ZM1300.87,1214.09c-1.13-1-25.11.74-29.42,0-1.93,5.72,5.14,3.34,6.96,5.94.23.33,2.23,7.44,2.23,7.85v72.59c6.62-.5,14.83-9.12,20-14.01,15.16-14.36,28.08-31.49,44.36-44.8v45.03c0,12.62-10.06,4.85-11.03,13.78h29.42c2.41-9.15-5.8-4.02-7.37-5.5-.57-.54.37-12.65.08-15.7-.22-2.33-1.91-4.86-1.91-5.44v-59.73c-2.87-.5-4.25.28-6.52,1.75-17.14,11.08-35.74,41.66-52.3,54.32-1.85,1.42-2.32,3.55-5.53,2.74v-48.7c0-6.79,15.92-5.78,11.03-10.11ZM2089.7,1214.09c-1.13-1-25.11.74-29.42,0-1.97,5.95,6.62,3.38,7.43,6.74l1.77,79.63,6.51-1.74,57.83-57.06v41.35c0,.52-2.44,9.7-2.73,10.14-1.79,2.65-9.65,1.65-8.3,7.32h29.42c1.25-5.95-9.19-4.47-9.19-10.11v-76.27c-2.87-.5-4.25.28-6.52,1.75-15.01,9.7-37.17,39.99-51.36,53.43-2.01,1.9-3.2,4.28-6.48,3.63v-48.7c0-6.79,15.92-5.78,11.03-10.11ZM2228.53,1214.09c-11.51-1.9-27.47,1.4-39.53,0-1.52,6.31,6.68,2.62,9.35,6.73,3.02,4.65,2.72,69.66-.59,73.69-2.12,2.59-8.55.22-6.92,5.96h39.53c12.41,0,23.82-14.32,23.11-26.7-.91-16-16.59-20.69-16.81-22.14-.84-5.48,11.63-10.69,6.65-26.62-1.58-5.07-9.97-10.13-14.8-10.93Z"/>
  <path class="st0" d="M583.75,1127.71l1.83-351.03c-49.01,10.12-92.69,51.14-122.12,90.21-7.13,9.46-29.84,43.2-31.63,53.11-1.25,6.92,11.08,18.64,15.51,25.18,41.64,61.63,74.17,157.97,43.52,230.27-25.38,59.87-96.67,52.17-118.15-6.81-20.77-57.04-4.39-141.91,13.77-198.59,2.27-7.09,10.84-21.7,8.82-27.83-5.07-15.41-45.36-33.66-61.61-33.19l12.86,11.93c24.37,34.04-2.94,76.71-44.2,57.04-28.99-13.82-36.92-60.12-9.72-79.69,32.83-23.62,88.44-7.42,120.86,10.57,14.09-22.19,26.15-45.24,42.66-65.84,34.79-43.39,80.01-74.5,132.71-92.49,3.09-3.13,8.3-41.08,9.34-48.56,9.59-68.8-.9-131.49,72.55-168.25,89.91-44.99,198.69,26.81,153.62,124.14-43.11,93.08-184.5,33.13-148.73-49.41,14.73-33.99,61.7-53.42,93.71-31.07,3.47,2.42,15.65,14.74,16.64,18.3,1.06,3.81-1.95,2.98-4.21,2.37-6.11-1.67-13.69-7.71-21.04-10.23-66.41-22.7-108.01,58.93-52.57,92.98,60.82,37.35,132.79-40.73,96.59-102.05-43.75-74.11-161.17-42.87-177.89,36.1-4.27,20.14-2.47,44.66-.81,65.32.57,7.11,6.74,57.94,9.24,59.72,9.56-.86,20.79-3.34,30.2-3.72,51.34-2.11,128.66,15.94,167.68-22.62,4.55-4.5,14.01-20.66,18.1-21.43,2.51-.48,3.54.14,2.75,2.74-2.57,8.36-21.18,30.1-28.52,35.83-46.7,36.46-131.39,15.91-186.59,29.45v367.57h57v16.54h-171.01c-.8-2.38,1.01-16.54,1.84-16.54h57ZM414.55,969.67c-4.32-3-9.49,13.15-10.56,16.05-18.79,51.04-36.83,157.21,1.44,201.68,15.68,18.22,38.32,18.15,47.35-5.88,14.13-37.6-7.95-136.55-22.12-175.56-1.82-5.02-13.97-34.8-16.12-36.29Z"/>
  <path class="st0" d="M2387.58,1127.71c-.58,4.36,1.65,15.22-1.72,17.58l-1632.1.88-26.6-1.9v-16.55h1660.41Z"/>
  <path class="st0" d="M809.92,802.42c.26.28.32,5.7-.39,6.97-.52.93-6.19,2.68-8.18,4.68-4.26,4.27-9.81,20.37-9.81,26.02v147.95c3.21.8,3.68-1.33,5.53-2.74,7.36-5.64,19.32-17.78,26.7-24.77,39.25-37.21,76.21-77.12,115.8-114.04,1.85-10.47-2.53-26.06-10.99-33.08-2.68-2.22-8.01-3.33-8.27-3.7-1.11-1.61.86-7.28,2.71-7.28h78.15c2.04,9.5-3.36,6.72-8.32,10.98-7.12,6.12-9.47,15.88-10.14,24.78-4.73,62.8,3.7,131.47.07,194.89.6,5.36,2.92,11.72,5.82,16.24,4.88,7.61,14.46,8.91,12.57,17.76h-80.91c-1.84-9.88,2.6-5.94,6.44-9.12,6.82-5.64,13.79-17.96,13.79-26.72v-153.46c-50.11,46.31-98.11,94.92-146.86,142.67-4.37,8.36,1.25,25.5,7.12,32.83,4.57,5.7,11.28,5.38,9.2,13.79h-79.07c-2.13-9.65,3.61-6.65,8.34-10.96,6.41-5.84,9.49-20.01,10.13-28.47,4.6-61.65-3.61-128.96-.07-191.22-.59-5.21-3.96-14.63-6.96-18.77-4.98-6.87-13.38-5.13-11.43-15.22,9.76,2.19,76.36-2.88,79.07,0Z"/>
  <path class="st0" d="M1392.81,802.42c2.14,9.5-4.56,6.89-10.01,12.98-2.61,2.91-8.38,16.03-8.38,19.18v80.86c0,.19,2.56,2.76,2.76,2.76h138.83v-83.62c0-2.36-6.41-16.91-8.34-19.22-5.16-6.16-12.31-3.21-10.04-12.94h78.15c.56,0,3.44,3.01,2.75,4.57-15.56,8.89-19.1,19.25-20.3,36.7-4.16,60.13,3.27,125.04.1,185.69,1.56,8.06,3.34,17.84,8.55,24.34,2.69,3.35,11.26,7.15,11.66,8.78.43,1.77-2.11,4.58-2.76,4.58h-78.15c-2.05-9.37,3.75-6.63,8.94-12.21,2.67-2.87,9.45-16.64,9.45-19.95v-93.73l-141.58-.92v94.65c0,3.31,6.78,17.08,9.45,19.95,5.18,5.58,10.99,2.84,8.94,12.21h-79.07c-2.11-9.71,3.27-6.44,7.25-10.18,6.08-5.71,10.3-19.27,11.12-27.51-3.41-60.43,4.6-125.85.1-185.68-.73-9.69-2.6-20.22-9.18-27.58-4.34-4.85-11.24-5.01-9.28-13.7h79.07Z"/>
  <path class="st0" d="M1639.2,940.26c5.8,79.82,74.69,130.6,152.58,100.13,14.85-5.81,33.98-19.15,43.13-32.25,4.62-6.61,5.26-19.33,13.91-18.26v46.86c-42.18,26.22-79.12,38.11-129.6,33.97-170.91-14-161.16-286.11,25.69-271.95,71.66,5.43,109.35,63.48,111.4,131.36.07,2.4,0,10.13-2.89,10.13h-214.22ZM1639.2,916.36h176.52c-4.13-129.45-169.45-126.92-176.52,0Z"/>
  <path class="st0" d="M1140.52,799.28c104.36-10.19,177.41,72.11,148.8,174.45-41.96,150.07-286.2,124.05-271.58-52.74,5.42-65.52,58.13-115.39,122.79-121.71ZM1136.74,821.24c-112.28,16.12-99.17,229.44,23.46,229.44,132.57,0,123.17-250.49-23.46-229.44Z"/>
  <path class="st0" d="M2240.11,799.29c100.49-9.44,170.39,64.88,150.25,164.87-28.69,142.38-246.04,143.98-272.26.08-14.97-82.15,37.97-157.07,122.01-164.96ZM2236.36,821.27c-113.41,15.33-100.25,229.15,21.59,229.41,133.09.28,124.43-249.15-21.59-229.41Z"/>
  <path class="st2" d="M603.99,357.66c-1.5-1.62-.36-4.33,2.3-6,15.08-9.46,31.78-14.87,47.18-26.32,57.27-42.56,84.22-117.67,25.92-172.62-71.28-67.19-173.6-17.46-201.84,66.63-1.16,3.46-7.5,19.31-1.37,18.88,7.51-.53,16.16-3.34,23.84-3.78,32.49-1.84,72.84,6.23,89.59,37.42,19.81,36.9-.76,86.08-43.74,91.11-59.32,6.95-91-39.37-92.67-93.53-36.3,11.26-66.07,51.62-69.63,89.37-5.19,55.05,12.07,92.41,65.92,110.07,31.78,10.43,68.41,10.84,99.34-1.92-20.63-25.51-28.31-59.14,1.23-81.42,46.82-35.32,105.72,16.9,62.01,63.81-10.07,10.81-24.35,16.75-35.66,25.9,17.52,4.89,30.54,3.53,47.81-.89,5.51-1.41,10.61-4.88,15.99-6.09,2.75-.62,4.93-1.5,4.21,2.38-14.66,9.86-36.44,15.18-54.01,13.57-7.67-.7-17.48-5.7-24.1-5.41-5.84.26-20.53,7.04-28.15,8.77-67.93,15.41-152.21-4.18-170.83-79.94-16.98-69.08,20.92-136.03,86.05-161.43,10.96-105.22,136.36-185.62,226.86-110.89,75.8,62.59,44.47,155.12-30.43,201.04-4.96,3.04-43.96,23.27-45.82,21.27ZM470,260.51c-1.26,37.72,18.3,84.97,61.86,85.62,20.4.3,43.89-13.83,46.38-35.32,6.85-59.19-67.56-65.5-108.24-50.3ZM570.4,385.67c-21.19,3.59-35.36,25.35-32.45,46.27,1.04,7.5,13.48,31.64,21.05,32.37,7.01.67,32.33-15.09,38.48-20.32,33.52-28.49,14.27-65.32-27.09-58.32Z"/>
  <path class="st2" d="M848.68,587.27c-1.21-.86-12.02-25.94-11.05-27.3,152.72-54.96,84.09-297.89-77.73-260.57-59.78,13.79-105.82,71.83-81.42,133.58,23.57,59.64,128.32,70.23,148.5,5.14,17.22-55.52-38.59-90.37-84.14-54.69-2.41,1.89-15.35,17.08-17.5,14.65-1.93-67.94,96.11-66.7,116.18-10.44,19.12,53.6-23.44,102.54-76.89,107.62-151.51,14.41-149.78-192.8.74-214.29,148.31-21.17,230.81,170.36,131.7,273.15-5.54,5.74-42.6,37.28-48.39,33.14Z"/>
  <path class="st0" d="M2106.25,804.26v63.41c0,1.23-4.07,4.61-6.47.95-1.5-2.29-2.07-12.05-3.7-16.52-4.09-11.22-18.57-27.62-31.21-27.62h-59.76v208.59c0,6.23,7.79,19.66,12.95,23.85,4.49,3.65,9.21.63,7.28,10.15h-82.74c-2.16-9.54,7.02-8.12,12.86-15.63,1.65-2.12,7.37-13.03,7.37-14.69v-212.27h-57.92c-10.93,0-25.21,14.22-29.42,23.89-2.31,5.3-3.49,17.31-5.53,20.2-2.61,3.7-6.42.28-6.42-.9v-63.41h242.72Z"/>
  <path class="st2" d="M684.88,506.56c2.58,2.69-.16,3.32-2.72,3.65-14.02,1.79-24.51-.6-39.52,4.64-47.39,16.52-51.22,69.02-66.68,107.95-40.23,101.34-212.68,61.93-197.67-48.71,7.35-54.21,86.07-90.47,130.13-55.66,17.51,13.83,28.87,39.3,20.58,61.1-10.29,27.08-57.22,36.25-61.08.52,7.75-1.79,4.79,4.02,8.33,9.12,11.11,16,39.76,2.99,44.52-12.33,8.7-27.99-17.27-56.63-44.6-59.26-42.53-4.09-87.34,31.01-83.13,75.74,5.97,63.5,95.41,89.79,142.74,55.48,46.88-33.98,32.15-128.74,110.08-143.6,6.54-1.25,35.37-2.44,39.02,1.36Z"/>
  <path class="st2" d="M556.14,1212.26l30.37,64.34c11.46-19.68,18.46-42.38,29.94-62,1.22-2.08.9-4.65,4.11-1.46,6.11,6.06,8.2,75.35,15.12,81.37,2.55,2.21,10.3-.14,8.74,5.95l-27.57-1.84c2.58-16.81-4.25-34.32-4.62-51.46l-27.59,51.47c-2.7.64-4.82-3.08-6.1-4.9-9.67-13.74-13.59-33.11-24.19-46.56l-5.69,46.62c.41,2.13,19.21,4.55,2.02,5.86-6.97-3.96-16.51,5.21-20.25-2.84,3.32-.49,7.55-1.53,8.83-4.97,5.74-22.26,4.39-53.88,11.48-74.9,1.01-3,1.35-5.34,5.39-4.69Z"/>
  <path class="st2" d="M1604.29,1274.73c4.29.93,2.94-.58,4.09-2.36,10.19-15.74,16.69-42.96,27.43-57.07,1.58-2.08,1.93-3.76,5.21-3.04l11.45,77.69,12.45,10.51-27.58-1.82-5.52-53.31-26.66,53.33-6.19-3.02-24.11-48.46c-.38,7.71-7.94,43.28-5.28,47.51,1.25,1.99,9.05.08,7.08,5.77-9.27-1.83-16.46-1.83-25.72,0-1.09-5.25,3.82-3.5,6.34-7.4,5.47-8.44,9.22-60.97,12.56-75.72.43-1.9.99-6.57,4.05-5.07l30.39,62.47Z"/>
  <path class="st2" d="M2089.7,1214.09c4.89,4.32-11.03,3.32-11.03,10.11v48.7c3.28.65,4.47-1.73,6.48-3.63,14.19-13.44,36.34-43.72,51.36-53.43,2.27-1.47,3.65-2.25,6.52-1.75v76.27c0,5.63,10.45,4.16,9.19,10.11h-29.42c-1.35-5.67,6.51-4.67,8.3-7.32.29-.43,2.73-9.61,2.73-10.14v-41.35l-57.83,57.06-6.51,1.74-1.77-79.63c-.81-3.36-9.41-.79-7.43-6.74,4.31.74,28.29-1,29.42,0Z"/>
  <path class="st2" d="M1300.87,1214.09c4.89,4.32-11.03,3.32-11.03,10.11v48.7c3.21.8,3.68-1.33,5.53-2.74,16.57-12.66,35.16-43.24,52.3-54.32,2.27-1.47,3.65-2.25,6.52-1.75v59.73c0,.59,1.25,20.61,1.82,21.15,1.57,1.48,9.78-3.64,7.37,5.5h-29.42c.97-8.93,11.03-1.16,11.03-13.78v-45.03c-16.28,13.3-29.2,30.44-44.36,44.8-5.17,4.89-13.38,13.51-20,14.01v-72.59c0-.41-2-7.51-2.23-7.85-1.82-2.59-8.89-.21-6.96-5.94,4.31.74,28.29-1,29.42,0Z"/>
  <path class="st2" d="M836.58,1214.09c3.79,1.22,5.26,14.52,4.59,18.37-7.94-1.08-1.36-7.48-12.05-9.01-26.03-3.72-21.09,3.64-21.05,25.57,19.67-2.53,41.15,8.04,38.67,30.35-1.05,9.43-13.86,21.1-23.03,21.1h-41.37c.16-7.63,8.07-1.7,9.3-11.84s1.66-55.1-.09-64.44c-1.06-5.68-7.87-4.26-7.37-10.09,12.74,2.52,41.86-3.38,52.4,0ZM808.08,1256.36v34c0,3.13,19.5,7.03,23.07-4.5,4.71-15.24-6.21-32.49-23.07-29.5Z"/>
  <path class="st2" d="M2228.53,1214.09c4.83.8,13.21,5.86,14.8,10.93,4.98,15.93-7.49,21.14-6.65,26.62.22,1.44,15.89,6.14,16.81,22.14.71,12.38-10.7,26.7-23.11,26.7h-39.53c-1.63-5.74,4.79-3.37,6.92-5.96,3.31-4.03,3.61-69.04.59-73.69-2.67-4.11-10.87-.42-9.35-6.73,12.07,1.4,28.02-1.9,39.53,0ZM2215.9,1219.75c-4.65,1.49-4.75,29.25,0,30.85,22.85,7.69,18.55-36.82,0-30.85ZM2212.9,1256.36v26.65c0,9.9,7.23,11.36,15.73,10.2,21.72-2.95,6.76-44.92-15.73-36.85Z"/>
  <path class="st2" d="M1142.74,1214.09c1.97,5.95-6.63,3.38-7.43,6.74-1.7,7.09,1.4,20.23.07,28.19,19.67-1.92,42.17,9.56,38.51,32.05-1.35,8.32-14.8,19.4-22.87,19.4h-41.37c-1.55-5.83,6.04-3.57,8.31-7.32,1.86-3.08,1.68-68.36,0-71.73-2.4-4.82-9.53-1.21-8.31-7.32h33.1ZM1140.24,1256.6c-5.2,1.75-3.64,28.95-.88,33.47,1.37,2.24,1.56,2.54,4.27,3.07,33.19,6.43,18.65-43.97-3.38-36.54Z"/>
  <path class="st2" d="M2290.13,1300.47c-4.19-3.33,7.84-5.56,9.09-6.54,6.84-5.31,24.86-63.69,31.78-76.66,1.29-2.41,2.84-5.05,6-5.03,4.41.03,25.33,72.62,34.9,80.94,2.92,2.54,6.34,3.63,10.17,3.64.58.56-2.38,3.66-2.76,3.66h-26.66c2.06-3.9-6.33-28.33-7.61-29.16-1.54-1-24.45-.72-25.69.89-3.18,4.14-12.12,28.02.19,24.61.59.55-2.37,3.66-2.76,3.66-4.02,0-25.62.83-26.66,0ZM2343.44,1263.7c-.3-2.85-8.04-28.03-11-25.71-1.4,8.93-8.02,16.4-7.38,25.72h18.38Z"/>
  <path class="st2" d="M1905.62,1216.12l.19,21.87c-9.53,1.69-2.25-7.34-11.53-13.29-12.67-8.13-33.2-6.38-42.76,5.89-22.94,29.43,11.78,78.29,43.11,59.64,2.63-1.56,7.04-10.73,9.32-8.14,3.97,4.52.68,15.66-6.88,17.92-37.41,11.15-81.31-16.54-67.55-58.33,10.44-31.72,48.87-32.7,76.09-25.55Z"/>
  <path class="st2" d="M2021.46,1216.12c1.42,1.67-.6,19.55.19,23.69l-11.15-15.48c-65.11-28.01-64.14,80.49-4.89,68.36,11.46-2.35,9.15-11.18,17.88-14.26.75.86-2.5,18.45-4.1,19.79-7.7,6.44-36.32,3.01-45.95-.09-40.6-13.08-38.75-73.48,3.34-83.86,6.73-1.66,41.41-1.97,44.67,1.86Z"/>
  <path class="st2" d="M1696.2,1300.47c-4.19-3.33,7.84-5.56,9.09-6.54,7.18-5.58,24.86-63.69,31.78-76.66,1.29-2.41,2.84-5.05,6-5.03,3.81.02,24.53,62.04,28.79,70.51,1.49,2.96,3.05,7.17,5.2,9.5,3.72,4.03,10.14,2.83,9.23,8.22-5.53-1.03-22.23,1.82-25.86-.78-2.64-1.9-4.61-27.91-11.76-28.75-2.87-.34-21.85-.24-22.81.38s-7.62,19.85-7.59,21.04c.12,5.28,7.04,2.4,5.51,8.12-4.3-.82-26.18,1.11-27.58,0ZM1749.52,1263.7c-.04-2.78-8.6-27.61-11-25.71l-9.21,25.72h20.21Z"/>
  <path class="st2" d="M938.63,1214.09v16.53c-5.03.59-4.86-4.83-8.63-6.99-3.45-1.97-14.08-3.57-17.24-1.38-5.31,25.88-4.04,33.36,24.02,26.76v18.37c-6.17,1.46-3.23-7.06-8.57-8.88-4.52-1.55-12.12.42-17.17-.3v28.49c0,7.68,19.12,7.24,23.88,3.65,2.78-2.09,1.66-9.34,7.37-8.24,1.08,3.16-.71,18.37-4.59,18.37h-50.57c-1.58-5.71,6.76-4.38,7.44-6.7,3.32-11.32.15-24.15.29-34.65.11-8.06,4.36-33.26-.8-39.07-2.64-2.98-10.37.13-8.77-5.96h53.32Z"/>
  <path class="st2" d="M740.05,1214.09v16.53c-5.26,1.09-3.51-3.81-7.41-6.34-4.65-3.02-13.17-3.81-18.45-2.03-2.76,1.92-2.76,25.87,0,27.79,5.47,3.8,19.59-2.11,25.89-.09l-1.88,15.59c-5.76,1.18-3.36-5.42-8.61-6.99-3.11-.93-14.49-1.26-16.32,1.37-1.97,2.83-1.06,26.54.95,30.14,2.23,4,18.89,3.32,23.2-.5,3.54-3.14.57-8.63,6.29-7.46,1.09,3.16-.72,18.37-4.59,18.37h-50.57c-1.63-5.74,4.79-3.37,6.92-5.96,3.31-4.03,3.61-69.04.59-73.69-2.67-4.11-10.87-.42-9.35-6.73h53.32Z"/>
  <path class="st2" d="M1043.44,1300.47c-2.15-17.93-10.08-40.18-17.54-56.99-.89-2.01-.04-4.7-3.59-3.67-2.62.75-14.7,45.21-19.03,51.01-3.96,5.34,11.57,6.16,7.05,9.64-1.17.9-25-2.05-29.4,0-1.39-5.77,5.66-3.87,9.08-6.53,6-4.66,23.58-58.26,29.21-70.05,1.5-3.14,4.31-11.67,8.57-11.65,4.54.01,25.59,75.65,37,82.52,2.45,1.47,5.25,2.02,8.07,2.06.59.56-2.38,3.66-2.76,3.66h-26.66Z"/>
  <path class="st2" d="M1438.78,1250.83c23.4,7.72,21.6,37.31,0,46.89-17.08,7.58-45.09,8.82-38.61-17.47,8.26-1.9,4.22,4.24,8.32,9.15,14.01,16.74,46.07-8.6,25.72-27.55-5.33-4.96-15.09-4.88-15.68-5.49-4.85-4.95,6.57-6.84,9.05-8.41,26.03-16.5-8.36-45.02-20.99-15.51-14.27-21.44,22.59-22.64,35.37-16.93,17.16,7.67,9.38,27.18-3.18,35.33Z"/>
  <path class="st1" d="M414.55,969.67c2.15,1.49,14.3,31.28,16.12,36.29,14.16,39.01,36.25,137.96,22.12,175.56-9.03,24.03-31.67,24.1-47.35,5.88-38.28-44.47-20.24-150.64-1.44-201.68,1.07-2.9,6.24-19.05,10.56-16.05Z"/>
  <path class="st1" d="M1639.2,916.36c7.07-126.92,172.39-129.45,176.52,0h-176.52Z"/>
  <path class="st3" d="M1136.74,821.24c146.63-21.05,156.04,229.44,23.46,229.44-122.64,0-135.75-213.33-23.46-229.44Z"/>
  <path class="st3" d="M2236.36,821.27c146.02-19.74,154.68,229.69,21.59,229.41-121.84-.26-135-214.07-21.59-229.41Z"/>
  <path class="st1" d="M470,260.51c40.67-15.2,115.09-8.89,108.24,50.3-2.49,21.49-25.97,35.62-46.38,35.32-43.56-.65-63.12-47.9-61.86-85.62Z"/>
  <path class="st1" d="M570.4,385.67c41.35-7,60.61,29.83,27.09,58.32-6.16,5.23-31.48,21-38.48,20.32-7.57-.73-20.01-24.87-21.05-32.37-2.91-20.92,11.26-42.68,32.45-46.27Z"/>
  <path class="st1" d="M808.08,1256.36c16.86-2.99,27.78,14.26,23.07,29.5-3.57,11.53-23.07,7.63-23.07,4.5v-34Z"/>
  <path class="st1" d="M2212.9,1256.36c22.48-8.07,37.44,33.9,15.73,36.85-8.5,1.16-15.73-.3-15.73-10.2v-26.65Z"/>
  <path class="st1" d="M2215.9,1219.75c18.56-5.97,22.86,38.54,0,30.85-4.76-1.6-4.65-29.36,0-30.85Z"/>
  <path class="st1" d="M1140.24,1256.6c22.03-7.43,36.58,42.97,3.38,36.54-2.71-.52-2.9-.83-4.27-3.07-2.76-4.51-4.32-31.72.88-33.47Z"/>
  <path class="st1" d="M2343.44,1263.7h-18.38c-.64-9.31,5.98-16.79,7.38-25.71,2.96-2.32,10.7,22.87,11,25.71Z"/>
  <path class="st1" d="M1749.52,1263.7h-20.21s9.21-25.71,9.21-25.71c2.4-1.9,10.97,22.94,11,25.71Z"/>
</svg>